<svg width="512" height="512" viewBox="0 0 512 512" fill="none" xmlns="http://www.w3.org/2000/svg">
<rect width="512" height="512" rx="100" fill="#3b82f6"/>
<path d="M140 120H80A40 40 0 0 0 40 160V432A40 40 0 0 0 80 472H360A40 40 0 0 0 400 432V160A40 40 0 0 0 360 120H300" stroke="white" stroke-width="32" stroke-linecap="round" stroke-linejoin="round"/>
<path d="M300 120V80A40 40 0 0 0 260 40H180A40 40 0 0 0 140 80V120" stroke="white" stroke-width="32" stroke-linecap="round" stroke-linejoin="round"/>
<path d="M340 280H100" stroke="white" stroke-width="32" stroke-linecap="round"/>
<path d="M340 360H100" stroke="white" stroke-width="32" stroke-linecap="round"/>
<path d="M220 200H100" stroke="white" stroke-width="32" stroke-linecap="round"/>
<path d="M410 210L350 270L320 240M380 200V300H280" stroke="#f59e0b" stroke-width="32" stroke-linecap="round" stroke-linejoin="round" />
</svg>
